<svg width="105" height="81" viewBox="0 0 105 81" fill="none" xmlns="http://www.w3.org/2000/svg">
<path d="M2 47H16.5L21.871 39.3911C22.1177 39.0416 22.6608 39.1432 22.7645 39.5582L28 60.5L29.8014 33.93C29.8394 33.3685 30.6323 33.2882 30.7822 33.8306L40.5 69L39.1696 25.985C39.1508 25.3766 40.0297 25.269 40.1581 25.864L48.5 64.5L49.4217 5.05145C49.431 4.44757 50.3042 4.37481 50.4134 4.9688L62 68L61.1092 27.9124C61.0958 27.3102 61.962 27.2026 62.0964 27.7897L70.5 64.5L71.367 38.0555C71.3864 37.4663 72.2312 37.3902 72.3555 37.9665L77 59.5L79.7837 40.0143C79.852 39.5357 80.4923 39.4231 80.7198 39.8497L84 46H103" stroke="url(#paint0_linear_148_24)" stroke-width="4" stroke-linecap="round"/>
<defs>
<linearGradient id="paint0_linear_148_24" x1="52.5" y1="0" x2="52.5" y2="69" gradientUnits="userSpaceOnUse">
<stop stop-color="#8B5CF6"/>
<stop offset="1" stop-color="#06B6D4"/>
</linearGradient>
</defs>
</svg>
