<svg width="100" height="100" viewBox="0 0 100 100" fill="none" xmlns="http://www.w3.org/2000/svg">
<path d="M47.7425 57.3636C49.0694 57.3636 50.1451 58.5033 50.1451 59.9091C50.1451 61.3149 49.0694 62.4545 47.7425 62.4545H4.32328C2.99634 62.4545 1.92064 61.3149 1.92064 59.9091C1.92064 58.5033 2.99634 57.3636 4.32328 57.3636H47.7425Z" fill="url(#paint0_linear_140_598)"/>
<path d="M38.6468 75.4545V85.7129L47.6116 86.5554L47.1869 91.6264L36.8366 90.6536C36.7787 90.6482 36.7205 90.6479 36.6626 90.6529L25.2827 91.628L24.8953 86.5538L33.8415 85.7871V75.4545H38.6468Z" fill="url(#paint1_linear_140_598)"/>
<path d="M90.0462 18.8182V6.18182C90.0462 5.57933 89.5852 5.09091 89.0165 5.09091H6.75964C6.19712 5.09094 5.73871 5.56923 5.7301 6.16513L4.80531 70.256C4.79653 70.865 5.26004 71.3636 5.83485 71.3636H46.9702C48.2972 71.3636 49.3729 72.5033 49.3729 73.9091C49.3729 75.3149 48.2972 76.4545 46.9702 76.4545H5.83485C2.57743 76.4545 -0.0490795 73.6289 0.000695973 70.1783L0.925318 6.08736C0.974043 2.71049 3.57186 3.06192e-05 6.75964 0H89.0165C92.2391 4.62724e-07 94.8515 2.76769 94.8515 6.18182V18.8182C94.8515 20.224 93.7758 21.3636 92.4489 21.3636C91.1219 21.3636 90.0462 20.224 90.0462 18.8182Z" fill="url(#paint2_linear_140_598)"/>
<path d="M95.1947 75.7273V30.5455C95.1947 29.943 94.7337 29.4545 94.165 29.4545H60.4422C59.8735 29.4545 59.4125 29.943 59.4125 30.5455V93.8182C59.4125 94.4207 59.8735 94.9091 60.4422 94.9091H93.1353C94.4622 94.9091 95.538 96.0487 95.538 97.4545C95.538 98.8604 94.4622 100 93.1353 100H60.4422C57.2196 100 54.6072 97.2323 54.6072 93.8182V30.5455C54.6072 27.1313 57.2196 24.3636 60.4422 24.3636H94.165C97.3876 24.3636 100 27.1313 100 30.5455V75.7273C100 77.1331 98.9243 78.2727 97.5974 78.2727C96.2704 78.2727 95.1947 77.1331 95.1947 75.7273Z" fill="url(#paint3_linear_140_598)"/>
<path d="M74.9439 87.9091C74.9439 86.8547 75.7506 86 76.7458 86H79.1485C80.1437 86 80.9505 86.8547 80.9505 87.9091C80.9505 88.9635 80.1437 89.8182 79.1485 89.8182H76.7458C75.7506 89.8182 74.9439 88.9635 74.9439 87.9091Z" fill="url(#paint4_linear_140_598)"/>
<defs>
<linearGradient id="paint0_linear_140_598" x1="50" y1="0" x2="50" y2="100" gradientUnits="userSpaceOnUse">
<stop stop-color="#8B5CF6"/>
<stop offset="1" stop-color="#06B6D4"/>
</linearGradient>
<linearGradient id="paint1_linear_140_598" x1="50" y1="0" x2="50" y2="100" gradientUnits="userSpaceOnUse">
<stop stop-color="#8B5CF6"/>
<stop offset="1" stop-color="#06B6D4"/>
</linearGradient>
<linearGradient id="paint2_linear_140_598" x1="50" y1="0" x2="50" y2="100" gradientUnits="userSpaceOnUse">
<stop stop-color="#8B5CF6"/>
<stop offset="1" stop-color="#06B6D4"/>
</linearGradient>
<linearGradient id="paint3_linear_140_598" x1="50" y1="0" x2="50" y2="100" gradientUnits="userSpaceOnUse">
<stop stop-color="#8B5CF6"/>
<stop offset="1" stop-color="#06B6D4"/>
</linearGradient>
<linearGradient id="paint4_linear_140_598" x1="50" y1="0" x2="50" y2="100" gradientUnits="userSpaceOnUse">
<stop stop-color="#8B5CF6"/>
<stop offset="1" stop-color="#06B6D4"/>
</linearGradient>
</defs>
</svg>
