<svg width="32" height="32" viewBox="0 0 32 32" fill="none" xmlns="http://www.w3.org/2000/svg">
<rect width="32" height="32" rx="8" fill="#22142C"/>
<path d="M11.0263 10.2046C11.0263 7.33018 13.2119 5 15.9079 5C18.6039 5 20.7895 7.33018 20.7895 10.2046V15.5653C20.7895 18.4397 18.6039 20.7699 15.9079 20.7699C13.2119 20.7699 11.0263 18.4397 11.0263 15.5653V10.2046Z" fill="white"/>
<path d="M17.8459 15.2797C17.9937 15.0947 18.2558 15.0711 18.4312 15.227C18.6067 15.3829 18.629 15.6593 18.4812 15.8443L18.3528 16.0049C17.1575 17.5007 14.9459 17.4079 13.867 15.8167C13.7336 15.6199 13.7767 15.3464 13.9633 15.2056C14.1499 15.0649 14.4094 15.1104 14.5428 15.3072C15.3063 16.4333 16.8715 16.4989 17.7175 15.4403L17.8459 15.2797Z" fill="#0F0616"/>
<path d="M14.8947 12.5929C14.8947 13.023 14.5648 13.3717 14.1579 13.3717C13.7509 13.3717 13.4211 13.023 13.4211 12.5929C13.4211 12.1628 13.7509 11.8142 14.1579 11.8142C14.5648 11.8142 14.8947 12.1628 14.8947 12.5929Z" fill="#0F0616"/>
<path d="M14.8472 12.5929C14.8472 12.1906 14.5386 11.8644 14.1579 11.8644C13.7772 11.8644 13.4686 12.1906 13.4686 12.5929C13.4686 12.9953 13.7772 13.3214 14.1579 13.3214V13.3717C13.7509 13.3717 13.4211 13.023 13.4211 12.5929C13.4211 12.1628 13.7509 11.8142 14.1579 11.8142C14.5648 11.8142 14.8947 12.1628 14.8947 12.5929C14.8947 13.023 14.5648 13.3717 14.1579 13.3717V13.3214C14.5386 13.3214 14.8472 12.9953 14.8472 12.5929Z" fill="#0F0616"/>
<path d="M18.7632 12.5929C18.7632 13.023 18.4333 13.3717 18.0263 13.3717C17.6194 13.3717 17.2895 13.023 17.2895 12.5929C17.2895 12.1628 17.6194 11.8142 18.0263 11.8142C18.4333 11.8142 18.7632 12.1628 18.7632 12.5929Z" fill="#0F0616"/>
<path d="M18.7156 12.5929C18.7156 12.1906 18.407 11.8644 18.0263 11.8644C17.6456 11.8644 17.337 12.1906 17.337 12.5929C17.337 12.9953 17.6456 13.3214 18.0263 13.3214V13.3717C17.6194 13.3717 17.2895 13.023 17.2895 12.5929C17.2895 12.1628 17.6194 11.8142 18.0263 11.8142C18.4333 11.8142 18.7632 12.1628 18.7632 12.5929C18.7632 13.023 18.4333 13.3717 18.0263 13.3717V13.3214C18.407 13.3214 18.7156 12.9953 18.7156 12.5929Z" fill="#0F0616"/>
<path d="M9 16.2091V14.7302C9 14.41 9.24278 14.1504 9.54225 14.1504C9.84173 14.1504 10.0845 14.41 10.0845 14.7302V16.2091C10.0845 19.7091 12.7244 22.5307 16 22.5307C19.2756 22.5307 21.9155 19.7091 21.9155 16.2091V14.7302C21.9155 14.41 22.1583 14.1504 22.4577 14.1504C22.7572 14.1504 23 14.41 23 14.7302V16.2091C23 20.3499 19.8741 23.6903 16 23.6903C12.1259 23.6903 9 20.3499 9 16.2091Z" fill="white"/>
<path d="M15.4474 25.8262V23.3065C15.4474 22.9808 15.6948 22.7168 16 22.7168C16.3052 22.7168 16.5526 22.9808 16.5526 23.3065V25.8262C16.5526 26.1519 16.3052 26.4159 16 26.4159C15.6948 26.4159 15.4474 26.1519 15.4474 25.8262Z" fill="white" fill-opacity="0.87451"/>
<path d="M12.4869 25.8319H19.6973C19.9953 25.8319 20.2368 26.0934 20.2368 26.4159C20.2368 26.7385 19.9953 27 19.6973 27H12.4869C12.1889 27 11.9474 26.7385 11.9474 26.4159C11.9474 26.0934 12.1889 25.8319 12.4869 25.8319Z" fill="white"/>
</svg>
