<svg width="100" height="100" viewBox="0 0 100 100" fill="none" xmlns="http://www.w3.org/2000/svg">
<path d="M87.0069 0.00851374C90.2229 -0.0924937 93.1118 0.710818 95.3363 2.12257C97.517 3.50656 99.267 5.6321 99.6576 8.21865C101.167 18.2133 97.4995 25.4805 92.3216 30.1971C87.2835 34.7863 80.826 36.9702 76.3753 37.1679C74.8279 37.2365 73.5189 36.0166 73.4513 34.4431C73.3837 32.8695 74.5834 31.5382 76.1307 31.4695C79.3254 31.3276 84.5364 29.6312 88.5793 25.9485C92.4825 22.3931 95.3086 16.9965 94.1137 9.0844C94.0413 8.60566 93.6093 7.74972 92.3668 6.9612C91.1679 6.20038 89.3922 5.64004 87.18 5.70951C82.8346 5.84601 76.6121 8.45929 70.41 17.1507C69.5003 18.4255 67.7466 18.709 66.493 17.7839C65.2395 16.8588 64.9607 15.0755 65.8704 13.8007C72.809 4.0771 80.4963 0.213004 87.0069 0.00851374Z" fill="url(#paint0_linear_142_2)"/>
<path d="M78.3563 24.15C78.3563 21.1695 75.9388 18.776 73.009 18.8556L50.6314 19.4633C49.3158 19.4991 48.0623 20.04 47.1229 20.9774L7.16946 60.8434C5.10255 62.9058 5.08667 66.2868 7.13425 68.369L31.1046 92.745C33.1385 94.8133 36.4362 94.8133 38.4702 92.745L76.8309 53.7352C77.8076 52.7419 78.3563 51.3947 78.3563 49.9901V24.15ZM83.9652 49.9901C83.9652 52.9075 82.8255 55.7054 80.7969 57.7683L42.4362 96.7781C38.2119 101.074 31.3629 101.074 27.1386 96.7781L3.16821 72.4022C-1.08448 68.0775 -1.05166 61.0557 3.24118 56.7723L43.1946 16.906C45.1457 14.9592 47.7493 13.8357 50.4817 13.7615L72.8593 13.1538C78.9444 12.9885 83.9651 17.9598 83.9652 24.15V49.9901Z" fill="url(#paint1_linear_142_2)"/>
<path d="M66.137 34.1973C66.137 32.116 64.4778 30.4288 62.4311 30.4288C60.3844 30.4288 58.7252 32.116 58.7252 34.1973C58.7252 36.2787 60.3844 37.9659 62.4311 37.9659C64.4778 37.9659 66.137 36.2787 66.137 34.1973ZM70.1433 34.1973C70.1433 38.5287 66.6904 42.04 62.4311 42.04C58.1718 42.04 54.7189 38.5287 54.7189 34.1973C54.7189 29.8659 58.1718 26.3546 62.4311 26.3546C66.6904 26.3546 70.1433 29.8659 70.1433 34.1973Z" fill="url(#paint2_linear_142_2)"/>
<path d="M47.5967 56.1331L39.6216 64.2432L37.6448 62.2329L45.5898 54.1536C46.2738 53.4579 46.7265 52.7674 46.9479 52.0819C47.1641 51.3914 47.1792 50.7315 46.9931 50.1024C46.802 49.4681 46.4423 48.8824 45.9142 48.3453C45.3911 47.8133 44.8151 47.4476 44.1864 47.2481C43.5576 47.0486 42.9037 47.0537 42.2247 47.2635C41.5406 47.4681 40.8615 47.9131 40.1875 48.5985L36.8979 51.9438L50.3582 65.6319L48.0343 67.9951L32.5821 52.2814L38.1956 46.5729C39.3676 45.3811 40.5572 44.601 41.7644 44.2327C42.9767 43.8593 44.1361 43.8363 45.2427 44.1637C46.3543 44.4859 47.3477 45.0921 48.223 45.9821C49.1083 46.8824 49.7043 47.8977 50.0111 49.0282C50.318 50.1484 50.2828 51.3198 49.9055 52.5423C49.5283 53.7546 48.7587 54.9515 47.5967 56.1331ZM49.0077 57.3377L50.992 59.3557L42.9037 67.5808L40.9194 65.5629L49.0077 57.3377Z" fill="url(#paint3_linear_142_2)"/>
<path d="M38.2277 78.4895C37.0305 79.6966 35.6976 80.4128 34.2288 80.6378C32.76 80.8629 31.2058 80.5969 29.566 79.8399C27.9262 79.0828 26.2663 77.8501 24.5863 76.1416C22.9113 74.4383 21.7041 72.7554 20.9646 71.093C20.2303 69.4254 19.9737 67.8449 20.195 66.3512C20.4214 64.8525 21.1256 63.5021 22.3077 62.3001C23.4897 61.098 24.8176 60.387 26.2914 60.167C27.7602 59.942 29.312 60.2054 30.9467 60.9573C32.5815 61.699 34.2364 62.9215 35.9114 64.6249C37.5964 66.3385 38.8112 68.029 39.5556 69.6965C40.295 71.359 40.5566 72.9395 40.3403 74.4383C40.119 75.9319 39.4148 77.2823 38.2277 78.4895ZM36.2132 76.4409C37.2594 75.3769 37.5662 74.0265 37.1337 72.3897C36.7061 70.7477 35.5266 68.9446 33.595 66.9804C32.3124 65.676 31.0926 64.7118 29.9357 64.0878C28.7788 63.4535 27.72 63.1594 26.7592 63.2054C25.7985 63.2412 24.9736 63.6095 24.2845 64.3103C23.2432 65.3691 22.9389 66.7221 23.3715 68.3692C23.8041 70.0162 24.9811 71.8219 26.9026 73.7861C28.1903 75.0956 29.4126 76.0675 30.5695 76.7017C31.7264 77.3258 32.7827 77.6173 33.7384 77.5764C34.6891 77.5304 35.514 77.1519 36.2132 76.4409Z" fill="url(#paint4_linear_142_2)"/>
<defs>
<linearGradient id="paint0_linear_142_2" x1="49.9998" y1="7.67233" x2="49.9998" y2="92.3272" gradientUnits="userSpaceOnUse">
<stop stop-color="#8B5CF6"/>
<stop offset="1" stop-color="#706EEF"/>
</linearGradient>
<linearGradient id="paint1_linear_142_2" x1="47.9914" y1="3.02993" x2="47.9914" y2="100.602" gradientUnits="userSpaceOnUse">
<stop stop-color="#8B5CF6"/>
<stop offset="1" stop-color="#06B6D4"/>
</linearGradient>
<linearGradient id="paint2_linear_142_2" x1="50" y1="12.987" x2="50" y2="87.013" gradientUnits="userSpaceOnUse">
<stop stop-color="#8B5CF6"/>
<stop offset="1" stop-color="#06B6D4"/>
</linearGradient>
<linearGradient id="paint3_linear_142_2" x1="-121.772" y1="46.4455" x2="119.869" y2="46.4455" gradientUnits="userSpaceOnUse">
<stop stop-color="#8B5CF6"/>
<stop offset="1" stop-color="#06B6D4"/>
</linearGradient>
<linearGradient id="paint4_linear_142_2" x1="21.227" y1="78.4254" x2="53.8535" y2="46.3418" gradientUnits="userSpaceOnUse">
<stop stop-color="#8B5CF6"/>
<stop offset="1" stop-color="#06B6D4"/>
</linearGradient>
</defs>
</svg>
