<svg width="131" height="39" viewBox="0 0 131 39" fill="none" xmlns="http://www.w3.org/2000/svg">
<path d="M3.32895 10.28C3.32895 5.7071 6.91951 2 11.3487 2C15.7779 2 19.3684 5.7071 19.3684 10.28V18.8085C19.3684 23.3814 15.7779 27.0885 11.3487 27.0885C6.91951 27.0885 3.32895 23.3814 3.32895 18.8085V10.28Z" fill="white"/>
<path d="M14.5325 18.354C14.7754 18.0597 15.2059 18.0222 15.4941 18.2702C15.7824 18.5182 15.8191 18.9579 15.5762 19.2522L15.3653 19.5078C13.4016 21.8874 9.76821 21.7398 7.99577 19.2084C7.77656 18.8953 7.8474 18.4601 8.154 18.2362C8.4606 18.0124 8.88681 18.0847 9.10603 18.3978C10.3604 20.1893 12.9318 20.2937 14.3216 18.6096L14.5325 18.354Z" fill="#0F0616"/>
<path d="M9.68421 14.0796C9.68421 14.7639 9.14224 15.3186 8.47368 15.3186C7.80513 15.3186 7.26316 14.7639 7.26316 14.0796C7.26316 13.3954 7.80513 12.8407 8.47368 12.8407C9.14224 12.8407 9.68421 13.3954 9.68421 14.0796Z" fill="#0F0616"/>
<path d="M9.60611 14.0796C9.60611 13.4395 9.09911 12.9206 8.47368 12.9206C7.84826 12.9206 7.34126 13.4395 7.34126 14.0796C7.34126 14.7197 7.84826 15.2387 8.47368 15.2387V15.3186C7.80513 15.3186 7.26316 14.7639 7.26316 14.0796C7.26316 13.3954 7.80513 12.8407 8.47368 12.8407C9.14224 12.8407 9.68421 13.3954 9.68421 14.0796C9.68421 14.7639 9.14224 15.3186 8.47368 15.3186V15.2387C9.09911 15.2387 9.60611 14.7197 9.60611 14.0796Z" fill="#0F0616"/>
<path d="M16.0395 14.0796C16.0395 14.7639 15.4975 15.3186 14.8289 15.3186C14.1604 15.3186 13.6184 14.7639 13.6184 14.0796C13.6184 13.3954 14.1604 12.8407 14.8289 12.8407C15.4975 12.8407 16.0395 13.3954 16.0395 14.0796Z" fill="#0F0616"/>
<path d="M15.9614 14.0796C15.9614 13.4395 15.4544 12.9206 14.8289 12.9206C14.2035 12.9206 13.6965 13.4395 13.6965 14.0796C13.6965 14.7197 14.2035 15.2387 14.8289 15.2387V15.3186C14.1604 15.3186 13.6184 14.7639 13.6184 14.0796C13.6184 13.3954 14.1604 12.8407 14.8289 12.8407C15.4975 12.8407 16.0395 13.3954 16.0395 14.0796C16.0395 14.7639 15.4975 15.3186 14.8289 15.3186V15.2387C15.4544 15.2387 15.9614 14.7197 15.9614 14.0796Z" fill="#0F0616"/>
<path d="M0 19.8326V17.4799C0 16.9705 0.398845 16.5575 0.890845 16.5575C1.38285 16.5575 1.78169 16.9705 1.78169 17.4799V19.8326C1.78169 25.4008 6.1187 29.8898 11.5 29.8898C16.8813 29.8898 21.2183 25.4008 21.2183 19.8326V17.4799C21.2183 16.9705 21.6172 16.5575 22.1092 16.5575C22.6012 16.5575 23 16.9705 23 17.4799V19.8326C23 26.4204 17.8645 31.7345 11.5 31.7345C5.13545 31.7345 0 26.4204 0 19.8326Z" fill="white"/>
<path d="M10.5921 35.1326V31.124C10.5921 30.6059 10.9986 30.1858 11.5 30.1858C12.0014 30.1858 12.4079 30.6059 12.4079 31.124V35.1326C12.4079 35.6508 12.0014 36.0708 11.5 36.0708C10.9986 36.0708 10.5921 35.6508 10.5921 35.1326Z" fill="white" fill-opacity="0.87451"/>
<path d="M5.72851 35.1416H17.5741C18.0637 35.1416 18.4605 35.5576 18.4605 36.0708C18.4605 36.584 18.0637 37 17.5741 37H5.72851C5.23896 37 4.84211 36.584 4.84211 36.0708C4.84211 35.5576 5.23896 35.1416 5.72851 35.1416Z" fill="white"/>
<path d="M39.9966 27V12.4545H49.6273V14.9901H43.0719V18.456H48.9881V20.9915H43.0719V27H39.9966ZM54.6646 12.4545V27H51.639V12.4545H54.6646ZM62.0172 27.2131C60.914 27.2131 59.9599 26.9787 59.155 26.5099C58.3548 26.0365 57.7369 25.3783 57.3013 24.5355C56.8657 23.688 56.6479 22.7055 56.6479 21.5881C56.6479 20.4612 56.8657 19.4763 57.3013 18.6335C57.7369 17.786 58.3548 17.1278 59.155 16.6591C59.9599 16.1856 60.914 15.9489 62.0172 15.9489C63.1204 15.9489 64.0721 16.1856 64.8723 16.6591C65.6773 17.1278 66.2975 17.786 66.7331 18.6335C67.1687 19.4763 67.3865 20.4612 67.3865 21.5881C67.3865 22.7055 67.1687 23.688 66.7331 24.5355C66.2975 25.3783 65.6773 26.0365 64.8723 26.5099C64.0721 26.9787 63.1204 27.2131 62.0172 27.2131ZM62.0314 24.8693C62.5333 24.8693 62.9524 24.7273 63.2885 24.4432C63.6247 24.1544 63.878 23.7614 64.0485 23.2642C64.2237 22.767 64.3113 22.2012 64.3113 21.5668C64.3113 20.9323 64.2237 20.3665 64.0485 19.8693C63.878 19.3722 63.6247 18.9792 63.2885 18.6903C62.9524 18.4015 62.5333 18.2571 62.0314 18.2571C61.5248 18.2571 61.0987 18.4015 60.753 18.6903C60.4121 18.9792 60.1541 19.3722 59.9789 19.8693C59.8084 20.3665 59.7232 20.9323 59.7232 21.5668C59.7232 22.2012 59.8084 22.767 59.9789 23.2642C60.1541 23.7614 60.4121 24.1544 60.753 24.4432C61.0987 24.7273 61.5248 24.8693 62.0314 24.8693ZM74.2828 27.2131C73.1796 27.2131 72.2256 26.9787 71.4206 26.5099C70.6204 26.0365 70.0025 25.3783 69.5669 24.5355C69.1313 23.688 68.9135 22.7055 68.9135 21.5881C68.9135 20.4612 69.1313 19.4763 69.5669 18.6335C70.0025 17.786 70.6204 17.1278 71.4206 16.6591C72.2256 16.1856 73.1796 15.9489 74.2828 15.9489C75.3861 15.9489 76.3378 16.1856 77.138 16.6591C77.9429 17.1278 78.5632 17.786 78.9988 18.6335C79.4344 19.4763 79.6522 20.4612 79.6522 21.5881C79.6522 22.7055 79.4344 23.688 78.9988 24.5355C78.5632 25.3783 77.9429 26.0365 77.138 26.5099C76.3378 26.9787 75.3861 27.2131 74.2828 27.2131ZM74.2971 24.8693C74.7989 24.8693 75.218 24.7273 75.5542 24.4432C75.8903 24.1544 76.1436 23.7614 76.3141 23.2642C76.4893 22.767 76.5769 22.2012 76.5769 21.5668C76.5769 20.9323 76.4893 20.3665 76.3141 19.8693C76.1436 19.3722 75.8903 18.9792 75.5542 18.6903C75.218 18.4015 74.7989 18.2571 74.2971 18.2571C73.7904 18.2571 73.3643 18.4015 73.0186 18.6903C72.6777 18.9792 72.4197 19.3722 72.2445 19.8693C72.074 20.3665 71.9888 20.9323 71.9888 21.5668C71.9888 22.2012 72.074 22.767 72.2445 23.2642C72.4197 23.7614 72.6777 24.1544 73.0186 24.4432C73.3643 24.7273 73.7904 24.8693 74.2971 24.8693ZM85.6394 27.1776C84.8108 27.1776 84.0603 26.9645 83.388 26.5384C82.7203 26.1075 82.19 25.4754 81.7971 24.642C81.4088 23.804 81.2147 22.7765 81.2147 21.5597C81.2147 20.3097 81.4159 19.2704 81.8184 18.4418C82.2208 17.6084 82.7559 16.9858 83.4235 16.5739C84.0958 16.1572 84.8321 15.9489 85.6323 15.9489C86.2431 15.9489 86.7521 16.053 87.1593 16.2614C87.5712 16.465 87.9026 16.7206 88.1536 17.0284C88.4093 17.3314 88.6034 17.6297 88.736 17.9233H88.8283V12.4545H91.8468V27H88.8638V25.2528H88.736C88.5939 25.5559 88.3927 25.8565 88.1323 26.1548C87.8766 26.4484 87.5428 26.6922 87.1309 26.8864C86.7237 27.0805 86.2265 27.1776 85.6394 27.1776ZM86.5982 24.7699C87.0859 24.7699 87.4978 24.6373 87.834 24.3722C88.1749 24.1023 88.4353 23.7259 88.6152 23.2429C88.7999 22.7599 88.8922 22.1941 88.8922 21.5455C88.8922 20.8968 88.8023 20.3333 88.6223 19.8551C88.4424 19.3769 88.182 19.0076 87.8411 18.7472C87.5002 18.4867 87.0859 18.3565 86.5982 18.3565C86.101 18.3565 85.682 18.4915 85.3411 18.7614C85.0002 19.0312 84.7421 19.4053 84.5669 19.8835C84.3917 20.3617 84.3042 20.9157 84.3042 21.5455C84.3042 22.1799 84.3917 22.741 84.5669 23.2287C84.7469 23.7116 85.0049 24.0904 85.3411 24.3651C85.682 24.6349 86.101 24.7699 86.5982 24.7699ZM94.3343 27V16.0909H97.3599V27H94.3343ZM95.8542 14.6847C95.4044 14.6847 95.0185 14.5355 94.6966 14.2372C94.3793 13.9342 94.2207 13.572 94.2207 13.1506C94.2207 12.7339 94.3793 12.3764 94.6966 12.0781C95.0185 11.7751 95.4044 11.6236 95.8542 11.6236C96.304 11.6236 96.6876 11.7751 97.0048 12.0781C97.3268 12.3764 97.4877 12.7339 97.4877 13.1506C97.4877 13.572 97.3268 13.9342 97.0048 14.2372C96.6876 14.5355 96.304 14.6847 95.8542 14.6847ZM102.809 12.4545V27H99.7836V12.4545H102.809ZM107.974 23.8608L107.981 20.2315H108.422L111.916 16.0909H115.389L110.694 21.5739H109.977L107.974 23.8608ZM105.233 27V12.4545H108.258V27H105.233ZM112.051 27L108.841 22.2486L110.858 20.1108L115.595 27H112.051ZM119.984 27.206C119.288 27.206 118.668 27.0852 118.123 26.8438C117.579 26.5975 117.148 26.2353 116.831 25.7571C116.518 25.2741 116.362 24.6728 116.362 23.9531C116.362 23.3471 116.473 22.8381 116.696 22.4261C116.918 22.0142 117.221 21.6828 117.605 21.4318C117.988 21.1809 118.424 20.9915 118.912 20.8636C119.404 20.7358 119.92 20.6458 120.46 20.5938C121.095 20.5275 121.606 20.4659 121.994 20.4091C122.382 20.3475 122.664 20.2576 122.839 20.1392C123.015 20.0208 123.102 19.8456 123.102 19.6136V19.571C123.102 19.1212 122.96 18.7732 122.676 18.527C122.397 18.2808 121.999 18.1577 121.483 18.1577C120.938 18.1577 120.505 18.2784 120.183 18.5199C119.861 18.7566 119.648 19.0549 119.544 19.4148L116.746 19.1875C116.888 18.5246 117.167 17.9517 117.584 17.4688C118 16.9811 118.538 16.607 119.196 16.3466C119.859 16.0814 120.626 15.9489 121.497 15.9489C122.103 15.9489 122.683 16.0199 123.237 16.1619C123.796 16.304 124.291 16.5241 124.721 16.8224C125.157 17.1207 125.5 17.5043 125.751 17.973C126.002 18.437 126.128 18.9934 126.128 19.642V27H123.258V25.4872H123.173C122.998 25.8281 122.764 26.1288 122.47 26.3892C122.176 26.6449 121.824 26.8461 121.412 26.9929C121 27.1349 120.524 27.206 119.984 27.206ZM120.851 25.1179C121.296 25.1179 121.689 25.0303 122.03 24.8551C122.371 24.6752 122.638 24.4337 122.832 24.1307C123.026 23.8277 123.123 23.4844 123.123 23.1009V21.9432C123.029 22.0047 122.898 22.0616 122.733 22.1136C122.572 22.161 122.39 22.206 122.186 22.2486C121.982 22.2865 121.779 22.322 121.575 22.3551C121.372 22.3835 121.187 22.4096 121.021 22.4332C120.666 22.4853 120.356 22.5682 120.091 22.6818C119.826 22.7955 119.62 22.9493 119.473 23.1435C119.326 23.3329 119.253 23.5696 119.253 23.8537C119.253 24.2656 119.402 24.5805 119.7 24.7983C120.003 25.0114 120.387 25.1179 120.851 25.1179Z" fill="white"/>
</svg>
