<svg width="99" height="82" viewBox="0 0 99 82" fill="none" xmlns="http://www.w3.org/2000/svg">
<path d="M72.7363 24.5232C74.09 23.671 75.875 24.0827 76.7232 25.4428C78.3747 28.0912 81.392 31.9729 82.7253 37.2977C84.106 42.8113 83.7095 49.6563 79.6168 58.7571C78.9591 60.2198 77.2457 60.8699 75.7899 60.209C74.3341 59.5481 73.6871 57.8266 74.3448 56.3639C78.0223 48.1862 78.1115 42.6946 77.1153 38.7159C76.0717 34.5484 73.8496 31.782 71.821 28.5289C70.9729 27.1688 71.3826 25.3754 72.7363 24.5232Z" fill="url(#paint0_linear_81_97)"/>
<path d="M85.2096 16.5221C86.4308 15.4874 88.2557 15.6433 89.2856 16.8702C95.2458 23.9716 104.546 43.2116 94.6745 64.222C93.9926 65.6734 92.2686 66.2947 90.824 65.6095C89.3794 64.9243 88.7611 63.1922 89.4431 61.7408C98.0296 43.4661 89.917 26.6389 84.8631 20.6173C83.8333 19.3903 83.9884 17.5568 85.2096 16.5221Z" fill="url(#paint1_linear_81_97)"/>
<path d="M61.0101 8.73338C61.0101 6.35819 58.3372 4.98617 56.4321 6.38345L32.7006 23.7898C31.955 24.3367 31.5139 25.2102 31.5139 26.1398V55.3383C31.5139 56.2534 31.9414 57.1151 32.6678 57.6639L56.3992 75.5919C58.2996 77.0275 61.0101 75.6604 61.0101 73.2663V8.73338ZM5.76473 51.3686L5.76567 51.4435C5.80512 53.0138 7.08008 54.2745 8.6471 54.2745H22.8668C24.4338 54.2745 25.7088 53.0138 25.7482 51.4435L25.7491 51.3686V28.7022L25.7482 28.627C25.7087 27.0568 24.4338 25.7962 22.8668 25.7962H8.6471C7.05521 25.7962 5.76473 27.0972 5.76473 28.7022V51.3686ZM66.7748 73.2663C66.7748 80.4485 58.6434 84.5497 52.9425 80.2429L29.211 62.3149C28.1127 61.4852 27.2422 60.4171 26.6488 59.2101C25.5063 59.7712 24.2231 60.0864 22.8668 60.0864H8.6471C3.94606 60.0864 0.121194 56.3043 0.00281481 51.5935L0 51.3686V28.7022C0 23.8874 3.87144 19.9843 8.6471 19.9843H22.8668C24.4756 19.9843 25.9814 20.4277 27.2716 21.1993C27.8203 20.3949 28.5058 19.6794 29.3091 19.0902L53.0406 1.68379C58.7559 -2.50823 66.7748 1.60773 66.7748 8.73338V73.2663Z" fill="url(#paint2_linear_81_97)"/>
<defs>
<linearGradient id="paint0_linear_81_97" x1="49.5008" y1="6.81417" x2="49.5008" y2="75.1843" gradientUnits="userSpaceOnUse">
<stop stop-color="#8B5CF6"/>
<stop offset="1" stop-color="#06B6D4"/>
</linearGradient>
<linearGradient id="paint1_linear_81_97" x1="49.4915" y1="4.99006" x2="49.4915" y2="77.0092" gradientUnits="userSpaceOnUse">
<stop stop-color="#8B5CF6"/>
<stop offset="1" stop-color="#06B6D4"/>
</linearGradient>
<linearGradient id="paint2_linear_81_97" x1="15.7569" y1="22.8902" x2="15.7569" y2="57.1804" gradientUnits="userSpaceOnUse">
<stop stop-color="#8B5CF6"/>
<stop offset="1" stop-color="#06B6D4"/>
</linearGradient>
</defs>
</svg>
