<svg width="256" height="256" viewBox="0 0 256 256" fill="none" xmlns="http://www.w3.org/2000/svg">
<rect width="256" height="256" rx="64" fill="#22142C"/>
<path d="M86.2237 79.239C86.2237 54.8065 104.801 35 127.717 35C150.633 35 169.211 54.8065 169.211 79.239V124.805C169.211 149.238 150.633 169.044 127.717 169.044C104.801 169.044 86.2237 149.238 86.2237 124.805V79.239Z" fill="white"/>
<path d="M144.19 122.377C145.446 120.805 147.674 120.604 149.165 121.929C150.657 123.254 150.847 125.604 149.59 127.176L148.499 128.542C138.339 141.256 119.54 140.467 110.369 126.942C109.235 125.269 109.602 122.944 111.188 121.748C112.774 120.552 114.98 120.938 116.114 122.611C122.604 132.183 135.908 132.741 143.098 123.743L144.19 122.377Z" fill="#0F0616"/>
<path d="M119.105 99.5398C119.105 103.196 116.301 106.159 112.842 106.159C109.383 106.159 106.579 103.196 106.579 99.5398C106.579 95.884 109.383 92.9204 112.842 92.9204C116.301 92.9204 119.105 95.884 119.105 99.5398Z" fill="#0F0616"/>
<path d="M118.701 99.5398C118.701 96.1199 116.078 93.3474 112.842 93.3474C109.606 93.3474 106.983 96.1199 106.983 99.5398C106.983 102.96 109.606 105.732 112.842 105.732V106.159C109.383 106.159 106.579 103.196 106.579 99.5398C106.579 95.884 109.383 92.9204 112.842 92.9204C116.301 92.9204 119.105 95.884 119.105 99.5398C119.105 103.196 116.301 106.159 112.842 106.159V105.732C116.078 105.732 118.701 102.96 118.701 99.5398Z" fill="#0F0616"/>
<path d="M151.987 99.5398C151.987 103.196 149.183 106.159 145.724 106.159C142.265 106.159 139.461 103.196 139.461 99.5398C139.461 95.884 142.265 92.9204 145.724 92.9204C149.183 92.9204 151.987 95.884 151.987 99.5398Z" fill="#0F0616"/>
<path d="M151.583 99.5398C151.583 96.1199 148.96 93.3474 145.724 93.3474C142.488 93.3474 139.865 96.1199 139.865 99.5398C139.865 102.96 142.488 105.732 145.724 105.732V106.159C142.265 106.159 139.461 103.196 139.461 99.5398C139.461 95.884 142.265 92.9204 145.724 92.9204C149.183 92.9204 151.987 95.884 151.987 99.5398C151.987 103.196 149.183 106.159 145.724 106.159V105.732C148.96 105.732 151.583 102.96 151.583 99.5398Z" fill="#0F0616"/>
<path d="M69 130.277V117.707C69 114.985 71.0636 112.779 73.6092 112.779C76.1547 112.779 78.2183 114.985 78.2183 117.707V130.277C78.2183 160.027 100.658 184.011 128.5 184.011C156.342 184.011 178.782 160.027 178.782 130.277V117.707C178.782 114.985 180.845 112.779 183.391 112.779C185.936 112.779 188 114.985 188 117.707V130.277C188 165.475 161.43 193.867 128.5 193.867C95.5704 193.867 69 165.475 69 130.277Z" fill="white"/>
<path d="M123.803 212.023V190.605C123.803 187.837 125.906 185.593 128.5 185.593C131.094 185.593 133.197 187.837 133.197 190.605V212.023C133.197 214.791 131.094 217.035 128.5 217.035C125.906 217.035 123.803 214.791 123.803 212.023Z" fill="white" fill-opacity="0.87451"/>
<path d="M98.6388 212.071H159.927C162.46 212.071 164.513 214.294 164.513 217.035C164.513 219.777 162.46 222 159.927 222H98.6388C96.1059 222 94.0526 219.777 94.0526 217.035C94.0526 214.294 96.1059 212.071 98.6388 212.071Z" fill="white"/>
</svg>
