<svg width="24" height="24" viewBox="0 0 24 24" fill="none" xmlns="http://www.w3.org/2000/svg">
<path d="M17.6466 2.11765H5.99954C3.85538 2.11765 2.11719 3.85583 2.11719 6V17.6471C2.11719 19.7912 3.85538 21.5294 5.99954 21.5294H17.6466C19.7908 21.5294 21.529 19.7912 21.529 17.6471V6C21.529 3.85583 19.7908 2.11765 17.6466 2.11765Z" fill="#0077FF"/>
<path d="M12.2971 9.00115L10.514 8.55419C10.0672 8.44214 9.6339 8.77961 9.6339 9.23972V10.0999L7.85083 9.65285C7.40393 9.54084 6.9707 9.87827 6.9707 10.3384V15.1106C6.9707 15.5157 7.24654 15.8688 7.64002 15.9675L10.47 16.6769C10.9169 16.7889 11.3501 16.4515 11.3501 15.9914L11.3502 11.2262C11.3502 11.2212 11.3502 11.2161 11.3501 11.2111C11.3477 10.9357 11.2177 10.685 11.0103 10.523L11.0048 10.5187C10.9872 10.505 10.9823 10.4796 10.9949 10.4613C11.0073 10.4431 11.0297 10.4346 11.0506 10.441C11.4235 10.5539 11.7803 10.9376 11.8159 11.4199L11.939 15.0645C11.943 15.1843 12.0203 15.2882 12.1316 15.3271L13.1332 15.5782C13.5801 15.6902 14.0133 15.3528 14.0133 14.8927L14.0141 10.1279C14.0141 10.061 14.0071 9.99877 13.995 9.94116C13.9536 9.74146 13.8444 9.56399 13.6894 9.43709C13.6818 9.43073 13.6748 9.42515 13.6686 9.42034C13.651 9.40666 13.6462 9.38123 13.6588 9.36288C13.6712 9.34483 13.6935 9.33629 13.7144 9.3426C14.0873 9.45558 14.4441 9.8392 14.4797 10.3216L14.6029 13.9659C14.6071 14.0921 14.6931 14.2005 14.8143 14.2332L15.7965 14.4795C16.2434 14.5915 16.6766 14.2541 16.6766 13.794V9.02172C16.6766 8.61665 16.4007 8.26345 16.0073 8.16484L13.1772 7.45544C12.7304 7.34338 12.2971 7.68086 12.2971 8.14091V9.00115Z" fill="white"/>
</svg>
